<svg width="19" height="26" viewBox="0 0 19 26" fill="none" xmlns="http://www.w3.org/2000/svg">
<path d="M18.5349 12.5227C18.2281 12.8426 17.8224 13 17.4167 13C17.0109 13 16.6062 12.8414 16.2974 12.524L11.0833 7.17544V22.75C11.0833 23.6484 10.3743 24.3293 9.54453 24.3293C8.71476 24.3293 7.91666 23.6489 7.91666 22.75V7.17544L2.70304 12.5227C2.08455 13.1575 1.0826 13.1575 0.464111 12.5227C-0.154378 11.8879 -0.154378 10.8596 0.464111 10.2249L8.38078 2.09985C8.99927 1.46509 10.0012 1.46509 10.6197 2.09985L18.5364 10.2249C19.1534 10.8622 19.1534 11.8879 18.5349 12.5227Z" fill="#594E36"/>
</svg>
