<svg width="14" height="19" viewBox="0 0 14 19" fill="none" xmlns="http://www.w3.org/2000/svg">
<path d="M13.6574 9.15112C13.4313 9.38491 13.1324 9.49995 12.8334 9.49995C12.5344 9.49995 12.2362 9.38398 12.0087 9.15205L8.16673 5.24351V16.625C8.16673 17.2814 7.64428 17.7791 7.03287 17.7791C6.42147 17.7791 5.8334 17.2818 5.8334 16.625V5.24351L1.99178 9.15112C1.53605 9.61499 0.79777 9.61499 0.342041 9.15112C-0.113688 8.68726 -0.113688 7.93579 0.342041 7.47192L6.17537 1.53442C6.6311 1.07056 7.36939 1.07056 7.82511 1.53442L13.6584 7.47192C14.1131 7.93765 14.1131 8.68726 13.6574 9.15112Z" fill="#594E36"/>
</svg>
